<?xml version="1.0" standalone="no"?>
<!DOCTYPE svg PUBLIC "-//W3C//DTD SVG 20010904//EN"
 "http://www.w3.org/TR/2001/REC-SVG-20010904/DTD/svg10.dtd">
<svg version="1.0" xmlns="http://www.w3.org/2000/svg"
 width="1280.000000pt" height="640.000000pt" viewBox="0 0 1280.000000 640.000000"
 preserveAspectRatio="xMidYMid meet">
<g transform="translate(0.000000,640.000000) scale(0.100000,-0.100000)"
fill="#000000" stroke="none">
<path d="M125 3363 c4 -230 11 -508 14 -618 l6 -200 44 -3 c94 -7 87 -27 83
263 -4 224 -3 255 11 255 8 0 197 -112 419 -249 l403 -250 5 241 c3 150 9 243
15 245 6 2 188 -107 405 -241 l395 -244 3 596 c1 327 0 597 -2 599 -2 3 -180
-104 -395 -237 -231 -143 -398 -240 -406 -236 -13 4 -15 43 -15 241 0 129 -3
235 -6 235 -3 0 -188 -113 -411 -251 -223 -137 -412 -248 -419 -245 -10 4 -14
26 -14 79 0 41 -3 156 -7 255 l-6 182 -65 0 -65 0 8 -417z"/>
<path d="M2921 3467 c-261 -161 -476 -297 -478 -303 -3 -10 937 -594 956 -594
8 0 11 70 11 240 0 167 3 240 11 240 6 0 185 -108 399 -240 214 -132 393 -240
399 -240 8 0 11 172 11 596 0 505 -2 595 -14 591 -8 -3 -185 -112 -395 -241
-210 -130 -388 -236 -396 -236 -13 0 -15 36 -15 240 0 132 -3 240 -7 240 -5 0
-221 -132 -482 -293z"/>
<path d="M5280 3165 c0 -548 1 -597 16 -591 22 8 925 565 942 580 10 10 -91
76 -464 307 -263 162 -481 296 -486 297 -4 2 -8 -265 -8 -593z"/>
<path d="M8350 3160 c0 -478 3 -600 13 -594 6 4 211 131 455 281 244 151 447
271 452 268 6 -4 10 -115 10 -276 0 -195 3 -269 11 -269 20 0 959 584 956 595
-4 10 -946 595 -959 595 -5 0 -8 -124 -8 -275 0 -225 -2 -275 -14 -275 -7 0
-211 122 -452 271 -241 149 -445 274 -451 276 -10 4 -13 -119 -13 -597z"/>
<path d="M6742 3163 l3 -528 130 0 130 0 3 528 2 527 -135 0 -135 0 2 -527z"/>
<path d="M7172 3163 l3 -528 130 0 130 0 3 528 2 527 -135 0 -135 0 2 -527z"/>
<path d="M12474 3391 c4 -164 3 -272 -2 -275 -6 -3 -200 112 -433 255 -233
144 -430 264 -436 266 -10 4 -13 -54 -13 -271 0 -235 -2 -276 -15 -276 -8 0
-215 124 -461 276 -245 151 -448 273 -450 271 -2 -2 -3 -272 -2 -600 l3 -596
453 280 c249 153 457 277 463 274 5 -4 9 -119 9 -276 0 -197 3 -269 12 -269 6
0 198 115 426 256 229 141 423 259 432 261 14 4 18 -8 23 -79 4 -46 7 -163 7
-260 0 -97 3 -183 6 -192 5 -12 21 -16 64 -16 33 0 61 4 64 9 6 9 -9 806 -20
1079 l-6 152 -66 0 -65 0 7 -269z"/>
</g>
</svg>
