<svg width="210" height="82" viewBox="0 0 210 82" fill="none" xmlns="http://www.w3.org/2000/svg">
<path d="M0.5 16C0.5 7.43959 7.43959 0.5 16 0.5H194C202.56 0.5 209.5 7.43959 209.5 16V66C209.5 74.5604 202.56 81.5 194 81.5H16C7.43959 81.5 0.5 74.5604 0.5 66V16Z" fill="white"/>
<path d="M185 57C193.284 57 200 49.8366 200 41C200 32.1634 193.284 25 185 25C176.716 25 170 32.1634 170 41C170 49.8366 176.716 57 185 57Z" fill="#335B6B"/>
<path d="M190.231 40H179M185.462 35L191 40L185.462 45V35Z" stroke="white" stroke-linecap="round" stroke-linejoin="round"/>
<path d="M0.5 16C0.5 7.43959 7.43959 0.5 16 0.5H194C202.56 0.5 209.5 7.43959 209.5 16V66C209.5 74.5604 202.56 81.5 194 81.5H16C7.43959 81.5 0.5 74.5604 0.5 66V16Z" stroke="#274C5B"/>
</svg>
