<svg width="267" height="82" viewBox="0 0 267 82" fill="none" xmlns="http://www.w3.org/2000/svg">
<path d="M0.5 16C0.5 7.43959 7.43959 0.5 16 0.5H251C259.56 0.5 266.5 7.43959 266.5 16V66C266.5 74.5604 259.56 81.5 251 81.5H16C7.43958 81.5 0.5 74.5604 0.5 66V16Z" fill="#EFD372"/>
<path d="M236 56C247.046 56 256 49.0604 256 40.5C256 31.9396 247.046 25 236 25C224.954 25 216 31.9396 216 40.5C216 49.0604 224.954 56 236 56Z" fill="#335B6B"/>
<path d="M242.038 39.5H228M236.077 35L243 39.5L236.077 44V35Z" stroke="white" stroke-linecap="round" stroke-linejoin="round"/>
<path d="M0.5 16C0.5 7.43959 7.43959 0.5 16 0.5H251C259.56 0.5 266.5 7.43959 266.5 16V66C266.5 74.5604 259.56 81.5 251 81.5H16C7.43958 81.5 0.5 74.5604 0.5 66V16Z" stroke="#EFD372"/>
</svg>
