<svg width="40" height="48" viewBox="0 0 40 48" fill="none" xmlns="http://www.w3.org/2000/svg">
<path d="M30.6864 8.39143L30.9214 8.04429L30.6206 7.75234C27.7096 4.92707 23.9973 3.22599 19.9218 3.22599C18.4943 3.22599 17.1116 3.46107 15.8042 3.84528L15.1684 4.03212L15.5226 4.59222C16.9147 6.7937 18.9149 10.1193 21.3101 15.3273L21.515 15.7727L21.9644 15.5766C26.5002 13.5969 29.2095 10.573 30.6864 8.39143ZM13.3851 5.31955L13.1314 4.92683L12.7226 5.15352C8.21892 7.65064 4.8337 12.4024 3.49992 18.1702L3.36351 18.7601L3.96859 18.7825C6.45047 18.8743 12.3773 18.7368 18.9439 16.6689L19.4905 16.4968L19.2458 15.9786C16.7052 10.5966 14.5689 7.15256 13.3851 5.31955ZM32.8411 10.3291L32.4291 9.75365L32.0244 10.3342C30.3609 12.7208 27.4825 15.8059 22.9374 17.8964L22.4989 18.0981L22.685 18.5435C23.6677 20.895 24.6214 23.4019 25.4906 26.1097L25.6243 26.5263L26.055 26.449C29.3409 25.8592 32.3781 25.8592 34.6719 26.0704C35.2282 26.1247 35.5865 26.1855 36.0061 26.2567C36.0946 26.2717 36.1859 26.2872 36.2824 26.3032L36.8134 26.3913L36.8621 25.8552C36.9291 25.1189 36.9676 24.3803 36.9676 23.6174C36.9676 18.5424 35.4039 13.9081 32.8411 10.3291ZM20.6829 19.2743L20.5025 18.849L20.0643 18.9953C12.3612 21.5677 5.5762 21.4889 3.46551 21.3887L2.97485 21.3655L2.94287 21.8556L2.94043 21.893C2.90378 22.4545 2.8666 23.0241 2.8666 23.6287C2.8666 29.7282 5.11073 35.1882 8.67297 38.9368L9.07772 39.3628L9.4334 38.8951C10.3295 37.7168 11.5312 36.2163 12.9922 34.65L12.9941 34.6481C15.745 31.6671 19.2776 28.5215 23.117 27.1511L23.5775 26.9867L23.4235 26.5226C22.5633 23.9318 21.6372 21.5232 20.6829 19.2743ZM30.1564 28.5767L30.1563 28.5766L30.15 28.577C29.1363 28.6345 28.0576 28.7493 26.9609 28.9213L26.4071 29.0081L26.5564 29.5484C27.4819 32.8974 28.2478 36.4464 28.7426 40.1394L28.8616 41.0273L29.5549 40.4599C32.7389 37.8537 35.1339 33.9928 36.248 29.4785L36.3817 28.9365L35.8283 28.8631C34.3662 28.6691 32.5102 28.4732 30.1564 28.5767ZM24.5105 29.9323L24.3651 29.4277L23.8682 29.5977C20.4767 30.7576 16.9387 33.76 14.2633 36.6466C12.9693 38.0307 11.9244 39.3444 11.0853 40.4211L10.7636 40.8339L11.1906 41.1364C13.7377 42.9411 16.7044 44.0087 19.9124 44.0087C22.3194 44.0087 24.587 43.4108 26.6538 42.361L26.9639 42.2034L26.924 41.8579C26.4411 37.6683 25.589 33.6741 24.5105 29.9323ZM0.867676 23.6174C0.867676 10.8514 9.50663 0.609375 19.9218 0.609375C30.337 0.609375 38.9759 10.8514 38.9759 23.6174C38.9759 36.3834 30.337 46.6254 19.9218 46.6254C9.50663 46.6254 0.867676 36.3834 0.867676 23.6174Z" fill="#070707" stroke="#070707"/>
</svg>
