<svg width="41" height="48" viewBox="0 0 41 48" fill="none" xmlns="http://www.w3.org/2000/svg">
<g clip-path="url(#clip0_169_15)">
<path d="M34.3201 0.363281H5.96036C2.72049 0.363281 0.0847168 3.45295 0.0847168 7.25072V40.4941C0.0847168 44.2919 2.72049 47.3816 5.96036 47.3816H34.3201C37.56 47.3816 40.1958 44.2919 40.1958 40.4941V7.25072C40.1958 3.45295 37.56 0.363281 34.3201 0.363281ZM37.8455 40.4941C37.8455 42.7727 36.264 44.6266 34.3201 44.6266H5.96036C4.0165 44.6266 2.43497 42.7727 2.43497 40.4941V7.25072C2.43497 4.97213 4.0165 3.11826 5.96036 3.11826H34.3201C36.264 3.11826 37.8455 4.97213 37.8455 7.25072V40.4941Z" fill="#070707" stroke="#070707" stroke-width="0.5"/>
<path d="M18.9651 19.7404C18.9651 16.7021 16.8566 14.2305 14.2646 14.2305H7.21387V33.5153H14.2646C16.8566 33.5153 18.9651 31.0437 18.9651 28.0054C18.9651 26.361 18.3467 24.8834 17.3686 23.8729C18.3467 22.8624 18.9651 21.3848 18.9651 19.7404ZM16.6149 28.0054C16.6149 29.5245 15.5606 30.7603 14.2646 30.7603H9.56412V25.2504H14.2646C15.5606 25.2504 16.6149 26.4862 16.6149 28.0054ZM9.56412 22.4954V16.9854H14.2646C15.5606 16.9854 16.6149 18.2212 16.6149 19.7404C16.6149 21.2596 15.5606 22.4954 14.2646 22.4954H9.56412Z" fill="#070707" stroke="#070707" stroke-width="0.5"/>
<path d="M27.1911 19.7402C23.9512 19.7402 21.3154 22.8299 21.3154 26.6277C21.3154 30.4255 23.9512 33.5151 27.1911 33.5151C29.2821 33.5151 31.2321 32.1961 32.2799 30.0725L30.2455 28.6928C29.6163 29.9681 28.4458 30.7601 27.1911 30.7601C25.6588 30.7601 24.3521 29.6086 23.867 28.0052H33.0667V26.6277C33.0667 22.8299 30.4309 19.7402 27.1911 19.7402ZM23.867 25.2502C24.3521 23.6467 25.6588 22.4952 27.1911 22.4952C28.7233 22.4952 30.03 23.6467 30.5151 25.2502H23.867Z" fill="#070707" stroke="#070707" stroke-width="0.5"/>
<path d="M22.4905 14.2305H31.8915V16.9854H22.4905V14.2305Z" fill="#070707" stroke="#070707" stroke-width="0.5"/>
</g>
<defs>
<clipPath id="clip0_169_15">
<rect width="40.111" height="47.0183" fill="white" transform="translate(0.0847168 0.363281)"/>
</clipPath>
</defs>
</svg>
