<svg width="40" height="48" viewBox="0 0 40 48" fill="none" xmlns="http://www.w3.org/2000/svg">
<path d="M12.1663 0.620671H12.6663V0.609375H28.571C34.4639 0.609375 39.4181 6.43037 39.4181 13.7588V33.4759C39.4181 40.8046 34.4637 46.6254 28.5804 46.6254H12.1663C6.27215 46.6254 1.30981 40.8142 1.30981 33.4985V13.7701C1.30981 6.44225 6.27287 0.620671 12.1663 0.620671ZM3.31814 13.7806V13.7814V33.5098C3.31814 39.2446 7.1739 44.0209 12.1663 44.0209H28.5804C33.5553 44.0209 37.4097 39.243 37.4097 33.4872V13.7701C37.4097 8.01388 33.555 3.23642 28.571 3.23642H12.1663C7.18201 3.23642 3.32785 8.01416 3.31814 13.7806ZM31.4025 9.16004C31.4025 8.34052 31.9283 7.85217 32.4067 7.85217C32.885 7.85217 33.4108 8.34052 33.4108 9.16004C33.4108 9.97956 32.885 10.4679 32.4067 10.4679C31.9283 10.4679 31.4025 9.97956 31.4025 9.16004ZM10.3442 23.623C10.3442 16.8488 14.9406 11.4679 20.3733 11.4679C25.8061 11.4679 30.4025 16.8488 30.4025 23.623C30.4025 30.3972 25.8061 35.7781 20.3733 35.7781C14.9406 35.7781 10.3442 30.3972 10.3442 23.623ZM28.3942 23.623C28.3942 18.4201 24.9057 14.0837 20.3733 14.0837C15.841 14.0837 12.3525 18.4201 12.3525 23.623C12.3525 28.826 15.841 33.1624 20.3733 33.1624C24.9057 33.1624 28.3942 28.826 28.3942 23.623Z" fill="#070707" stroke="#070707"/>
</svg>
