<svg width="22" height="24" viewBox="0 0 22 24" fill="none" xmlns="http://www.w3.org/2000/svg">
<path d="M10.2035 0.930685C10.4744 -0.0464945 11.86 -0.0464945 12.1309 0.930685L13.8908 7.28009C14.0109 7.71317 14.4051 8.01297 14.8545 8.01297H20.8488C21.7787 8.01297 22.2051 9.17131 21.4971 9.77429L16.3885 14.1251C16.0923 14.3773 15.9693 14.7785 16.0732 15.1535L17.9583 21.9542C18.2216 22.9042 17.0968 23.6218 16.3463 22.9826L11.8156 19.124C11.4419 18.8058 10.8925 18.8058 10.5188 19.124L5.98812 22.9826C5.2376 23.6218 4.11275 22.9042 4.37608 21.9542L6.26114 15.1535C6.36508 14.7785 6.24208 14.3773 5.94586 14.1251L0.837244 9.77429C0.129236 9.17131 0.555647 8.01297 1.48562 8.01297H7.47989C7.9293 8.01297 8.32351 7.71317 8.44355 7.28009L10.2035 0.930685Z" fill="#070707"/>
</svg>
