<svg width="22" height="24" viewBox="0 0 22 24" fill="none" xmlns="http://www.w3.org/2000/svg">
<path d="M10.3007 0.930685C10.5716 -0.0464945 11.9572 -0.0464945 12.228 0.930685L13.988 7.28009C14.108 7.71317 14.5022 8.01297 14.9517 8.01297H20.9459C21.8759 8.01297 22.3023 9.17131 21.5943 9.77429L16.4857 14.1251C16.1895 14.3773 16.0665 14.7785 16.1704 15.1535L18.0555 21.9542C18.3188 22.9042 17.1939 23.6218 16.4434 22.9826L11.9127 19.124C11.5391 18.8058 10.9897 18.8058 10.616 19.124L6.08529 22.9826C5.33477 23.6218 4.20992 22.9042 4.47325 21.9542L6.35831 15.1535C6.46224 14.7785 6.33925 14.3773 6.04303 14.1251L0.934412 9.77429C0.226404 9.17131 0.652815 8.01297 1.58279 8.01297H7.57706C8.02647 8.01297 8.42068 7.71317 8.54072 7.28009L10.3007 0.930685Z" fill="#E5E5E5"/>
</svg>
